Griffith_Gothic-Black.ufo
<glyph name="plus" format="1">
  <advance width="600"/>
  <unicode hex="002B"/>
  <outline>
    <contour>
      <point x="562" y="292" type="line"/>
      <point x="364" y="292" type="line"/>
      <point x="364" y="93" type="line"/>
      <point x="236" y="93" type="line"/>
      <point x="236" y="292" type="line"/>
      <point x="38" y="292" type="line"/>
      <point x="38" y="418" type="line"/>
      <point x="236" y="418" type="line"/>
      <point x="236" y="617" type="line"/>
      <point x="364" y="617" type="line"/>
      <point x="364" y="418" type="line"/>
      <point x="562" y="418" type="line"/>
    </contour>
  </outline>
</glyph>
<glyph name="period" format="1">
  <advance width="236"/>
  <unicode hex="002E"/>
  <outline>
    <contour>
      <point x="205" y="80" type="curve" smooth="yes"/>
      <point x="205" y="30"/>
      <point x="168" y="-7"/>
      <point x="118" y="-7" type="curve" smooth="yes"/>
      <point x="68" y="-7"/>
      <point x="31" y="30"/>
      <point x="31" y="80" type="curve" smooth="yes"/>
      <point x="31" y="129"/>
      <point x="68" y="166"/>
      <point x="118" y="166" type="curve" smooth="yes"/>
      <point x="168" y="166"/>
      <point x="205" y="129"/>
    </contour>
  </outline>
</glyph>
<glyph name="slash" format="1">
  <advance width="438"/>
  <unicode hex="002F"/>
  <outline>
    <contour>
      <point x="428" y="735" type="line"/>
      <point x="123" y="-95" type="line"/>
      <point x="-19" y="-95" type="line"/>
      <point x="285" y="735" type="line"/>
    </contour>
  </outline>
</glyph>
<glyph name="one" format="1">
  <advance width="453"/>
  <unicode hex="0031"/>
  <outline>
    <contour>
      <point x="436" y="0" type="line"/>
      <point x="41" y="0" type="line"/>
      <point x="41" y="96" type="line"/>
      <point x="161" y="96" type="line"/>
      <point x="161" y="624" type="line"/>
      <point x="29" y="624" type="line"/>
      <point x="29" y="720" type="line"/>
      <point x="317" y="720" type="line"/>
      <point x="317" y="96" type="line"/>
      <point x="436" y="96" type="line"/>
    </contour>
  </outline>
</glyph>
<glyph name="nine" format="1">
  <advance width="599"/>
  <unicode hex="0039"/>
  <outline>
    <contour>
      <point x="564" y="461" type="curve" smooth="yes"/>
      <point x="564" y="301"/>
      <point x="476" y="134"/>
      <point x="328" y="0" type="curve"/>
      <point x="139" y="0" type="line"/>
      <point x="288" y="108"/>
      <point x="384" y="227"/>
      <point x="411" y="320" type="curve"/>
      <point x="405" y="320" type="line"/>
      <point x="364" y="280"/>
      <point x="317" y="253"/>
      <point x="239" y="253" type="curve" smooth="yes"/>
      <point x="119" y="253"/>
      <point x="26" y="332"/>
      <point x="26" y="482" type="curve" smooth="yes"/>
      <point x="26" y="637"/>
      <point x="131" y="732"/>
      <point x="298" y="732" type="curve" smooth="yes"/>
      <point x="465" y="732"/>
      <point x="564" y="646"/>
    </contour>
    <contour>
      <point x="412" y="492" type="curve" smooth="yes"/>
      <point x="412" y="570"/>
      <point x="370" y="627"/>
      <point x="296" y="627" type="curve" smooth="yes"/>
      <point x="221" y="627"/>
      <point x="179" y="570"/>
      <point x="179" y="491" type="curve" smooth="yes"/>
      <point x="179" y="413"/>
      <point x="217" y="357"/>
      <point x="293" y="357" type="curve" smooth="yes"/>
      <point x="369" y="357"/>
      <point x="412" y="417"/>
    </contour>
  </outline>
</glyph>
<glyph name="question" format="1">
  <advance width="497"/>
  <unicode hex="003F"/>
  <outline>
    <contour>
      <point x="467" y="548" type="curve" smooth="yes"/>
      <point x="467" y="459"/>
      <point x="431" y="416"/>
      <point x="354" y="361" type="curve" smooth="yes"/>
      <point x="297" y="321"/>
      <point x="275" y="293"/>
      <point x="270" y="235" type="curve"/>
      <point x="176" y="235" type="line"/>
      <point x="167" y="335"/>
      <point x="186" y="373"/>
      <point x="253" y="429" type="curve" smooth="yes"/>
      <point x="298" y="467"/>
      <point x="316" y="499"/>
      <point x="316" y="541" type="curve" smooth="yes"/>
      <point x="316" y="585"/>
      <point x="291" y="616"/>
      <point x="244" y="616" type="curve" smooth="yes"/>
      <point x="196" y="616"/>
      <point x="164" y="589"/>
      <point x="127" y="506" type="curve"/>
      <point x="12" y="558" type="line"/>
      <point x="57" y="670"/>
      <point x="122" y="732"/>
      <point x="251" y="732" type="curve" smooth="yes"/>
      <point x="389" y="732"/>
      <point x="467" y="657"/>
    </contour>
    <contour>
      <point x="306" y="76" type="curve" smooth="yes"/>
      <point x="306" y="29"/>
      <point x="270" y="-7"/>
      <point x="222" y="-7" type="curve" smooth="yes"/>
      <point x="175" y="-7"/>
      <point x="139" y="29"/>
      <point x="139" y="76" type="curve" smooth="yes"/>
      <point x="139" y="124"/>
      <point x="175" y="159"/>
      <point x="222" y="159" type="curve" smooth="yes"/>
      <point x="270" y="159"/>
      <point x="306" y="124"/>
    </contour>
  </outline>
</glyph>
<glyph name="J" format="1">
  <advance width="540"/>
  <unicode hex="004A"/>
  <outline>
    <contour>
      <point x="488" y="228" type="line" smooth="yes"/>
      <point x="488" y="67"/>
      <point x="403" y="-12"/>
      <point x="246" y="-12" type="curve" smooth="yes"/>
      <point x="96" y="-12"/>
      <point x="22" y="59"/>
      <point x="15" y="215" type="curve"/>
      <point x="164" y="242" type="line"/>
      <point x="167" y="147"/>
      <point x="197" y="114"/>
      <point x="249" y="114" type="curve" smooth="yes"/>
      <point x="299" y="114"/>
      <point x="328" y="146"/>
      <point x="328" y="222" type="curve" smooth="yes"/>
      <point x="328" y="720" type="line"/>
      <point x="488" y="720" type="line"/>
    </contour>
  </outline>
</glyph>
<glyph name="K" format="1">
  <advance width="650"/>
  <unicode hex="004B"/>
  <outline>
    <contour>
      <point x="653" y="0" type="line"/>
      <point x="477" y="0" type="line"/>
      <point x="236" y="387" type="line"/>
      <point x="236" y="389" type="line"/>
      <point x="462" y="720" type="line"/>
      <point x="636" y="720" type="line"/>
      <point x="403" y="394" type="line"/>
    </contour>
    <contour>
      <point x="218" y="0" type="line"/>
      <point x="58" y="0" type="line"/>
      <point x="58" y="720" type="line"/>
      <point x="218" y="720" type="line"/>
    </contour>
  </outline>
</glyph>
<glyph name="O" format="1">
  <advance width="646"/>
  <unicode hex="004F"/>
  <outline>
    <contour>
      <point x="607" y="336" type="line" smooth="yes"/>
      <point x="607" y="112"/>
      <point x="495" y="-12"/>
      <point x="323" y="-12" type="curve" smooth="yes"/>
      <point x="150" y="-12"/>
      <point x="39" y="111"/>
      <point x="39" y="336" type="curve" smooth="yes"/>
      <point x="39" y="384" type="line" smooth="yes"/>
      <point x="39" y="608"/>
      <point x="150" y="732"/>
      <point x="323" y="732" type="curve" smooth="yes"/>
      <point x="495" y="732"/>
      <point x="607" y="609"/>
      <point x="607" y="384" type="curve" smooth="yes"/>
    </contour>
    <contour>
      <point x="442" y="316" type="curve" smooth="yes"/>
      <point x="442" y="403" type="line" smooth="yes"/>
      <point x="442" y="534"/>
      <point x="404" y="611"/>
      <point x="323" y="611" type="curve" smooth="yes"/>
      <point x="242" y="611"/>
      <point x="204" y="534"/>
      <point x="204" y="404" type="curve" smooth="yes"/>
      <point x="204" y="317" type="line" smooth="yes"/>
      <point x="204" y="186"/>
      <point x="242" y="109"/>
      <point x="323" y="109" type="curve" smooth="yes"/>
      <point x="404" y="109"/>
      <point x="442" y="185"/>
    </contour>
  </outline>
</glyph>
<glyph name="Q" format="1">
  <advance width="646"/>
  <unicode hex="0051"/>
  <outline>
    <contour>
      <point x="641" y="-114" type="line"/>
      <point x="628" y="-118"/>
      <point x="615" y="-119"/>
      <point x="597" y="-119" type="curve" smooth="yes"/>
      <point x="535" y="-119"/>
      <point x="501" y="-104"/>
      <point x="462" y="-48" type="curve" smooth="yes"/>
      <point x="425" y="6" type="line"/>
      <point x="395" y="-5"/>
      <point x="360" y="-12"/>
      <point x="323" y="-12" type="curve" smooth="yes"/>
      <point x="150" y="-12"/>
      <point x="39" y="111"/>
      <point x="39" y="336" type="curve" smooth="yes"/>
      <point x="39" y="384" type="line" smooth="yes"/>
      <point x="39" y="608"/>
      <point x="150" y="732"/>
      <point x="323" y="732" type="curve" smooth="yes"/>
      <point x="495" y="732"/>
      <point x="607" y="609"/>
      <point x="607" y="384" type="curve" smooth="yes"/>
      <point x="607" y="336" type="line" smooth="yes"/>
      <point x="607" y="207"/>
      <point x="569" y="109"/>
      <point x="505" y="52" type="curve"/>
      <point x="534" y="14" type="line" smooth="yes"/>
      <point x="554" y="-12"/>
      <point x="571" y="-23"/>
      <point x="601" y="-23" type="curve" smooth="yes"/>
      <point x="613" y="-23"/>
      <point x="628" y="-21"/>
      <point x="641" y="-18" type="curve"/>
    </contour>
    <contour>
      <point x="442" y="303" type="curve" smooth="yes"/>
      <point x="442" y="403" type="line" smooth="yes"/>
      <point x="442" y="534"/>
      <point x="404" y="611"/>
      <point x="323" y="611" type="curve" smooth="yes"/>
      <point x="242" y="611"/>
      <point x="204" y="534"/>
      <point x="204" y="404" type="curve" smooth="yes"/>
      <point x="204" y="303" type="line" smooth="yes"/>
      <point x="204" y="172"/>
      <point x="242" y="95"/>
      <point x="323" y="95" type="curve" smooth="yes"/>
      <point x="340" y="95"/>
      <point x="357" y="99"/>
      <point x="369" y="106" type="curve"/>
      <point x="293" y="219" type="line"/>
      <point x="347" y="253" type="line"/>
      <point x="418" y="156" type="line"/>
      <point x="432" y="182"/>
      <point x="442" y="230"/>
    </contour>
  </outline>
</glyph>
<glyph name="Z" format="1">
  <advance width="568"/>
  <unicode hex="005A"/>
  <outline>
    <contour>
      <point x="537" y="0" type="line"/>
      <point x="31" y="0" type="line"/>
      <point x="31" y="109" type="line"/>
      <point x="355" y="596" type="line"/>
      <point x="47" y="596" type="line"/>
      <point x="47" y="720" type="line"/>
      <point x="537" y="720" type="line"/>
      <point x="537" y="611" type="line"/>
      <point x="213" y="124" type="line"/>
      <point x="537" y="124" type="line"/>
    </contour>
  </outline>
</glyph>
<glyph name="grave" format="1">
  <advance width="500"/>
  <unicode hex="0060"/>
  <outline>
    <contour>
      <point x="358" y="592" type="line"/>
      <point x="260" y="592" type="line"/>
      <point x="110" y="743" type="line"/>
      <point x="280" y="743" type="line"/>
    </contour>
  </outline>
</glyph>
<glyph name="f" format="1">
  <advance width="388"/>
  <unicode hex="0066"/>
  <outline>
    <contour>
      <point x="405" y="643" type="line"/>
      <point x="380" y="653"/>
      <point x="358" y="657"/>
      <point x="323" y="657" type="curve" smooth="yes"/>
      <point x="278" y="657"/>
      <point x="256" y="637"/>
      <point x="256" y="589" type="curve" smooth="yes"/>
      <point x="256" y="529" type="line"/>
      <point x="383" y="529" type="line"/>
      <point x="383" y="428" type="line"/>
      <point x="256" y="428" type="line"/>
      <point x="256" y="0" type="line"/>
      <point x="107" y="0" type="line"/>
      <point x="107" y="428" type="line"/>
      <point x="12" y="428" type="line"/>
      <point x="12" y="529" type="line"/>
      <point x="107" y="529" type="line"/>
      <point x="107" y="585" type="line" smooth="yes"/>
      <point x="107" y="700"/>
      <point x="171" y="759"/>
      <point x="286" y="759" type="curve" smooth="yes"/>
      <point x="340" y="759"/>
      <point x="371" y="754"/>
      <point x="405" y="745" type="curve"/>
    </contour>
  </outline>
</glyph>
<glyph name="j" format="1">
  <advance width="262"/>
  <unicode hex="006A"/>
  <outline>
    <contour>
      <point x="212" y="610" type="line"/>
      <point x="50" y="610" type="line"/>
      <point x="50" y="727" type="line"/>
      <point x="212" y="727" type="line"/>
    </contour>
    <contour>
      <point x="206" y="-23" type="line" smooth="yes"/>
      <point x="206" y="-147"/>
      <point x="147" y="-190"/>
      <point x="42" y="-190" type="curve" smooth="yes"/>
      <point x="-2" y="-190"/>
      <point x="-29" y="-185"/>
      <point x="-58" y="-176" type="curve"/>
      <point x="-58" y="-86" type="line"/>
      <point x="-38" y="-93"/>
      <point x="-23" y="-96"/>
      <point x="-3" y="-96" type="curve" smooth="yes"/>
      <point x="32" y="-96"/>
      <point x="56" y="-79"/>
      <point x="56" y="-31" type="curve" smooth="yes"/>
      <point x="56" y="532" type="line"/>
      <point x="206" y="532" type="line"/>
    </contour>
  </outline>
</glyph>
<glyph name="t" format="1">
  <advance width="420"/>
  <unicode hex="0074"/>
  <outline>
    <contour>
      <point x="402" y="27" type="line"/>
      <point x="350" y="2"/>
      <point x="303" y="-10"/>
      <point x="246" y="-10" type="curve" smooth="yes"/>
      <point x="152" y="-10"/>
      <point x="104" y="32"/>
      <point x="104" y="123" type="curve" smooth="yes"/>
      <point x="104" y="428" type="line"/>
      <point x="12" y="428" type="line"/>
      <point x="12" y="529" type="line"/>
      <point x="104" y="529" type="line"/>
      <point x="104" y="696" type="line"/>
      <point x="253" y="729" type="line"/>
      <point x="253" y="529" type="line"/>
      <point x="386" y="529" type="line"/>
      <point x="386" y="428" type="line"/>
      <point x="253" y="428" type="line"/>
      <point x="253" y="157" type="line" smooth="yes"/>
      <point x="253" y="124"/>
      <point x="271" y="106"/>
      <point x="300" y="106" type="curve" smooth="yes"/>
      <point x="327" y="106"/>
      <point x="356" y="115"/>
      <point x="402" y="138" type="curve"/>
    </contour>
  </outline>
</glyph>
<glyph name="x" format="1">
  <advance width="535"/>
  <unicode hex="0078"/>
  <outline>
    <contour>
      <point x="520" y="0" type="line"/>
      <point x="358" y="0" type="line"/>
      <point x="262" y="167" type="line"/>
      <point x="163" y="0" type="line"/>
      <point x="15" y="0" type="line"/>
      <point x="189" y="265" type="line"/>
      <point x="20" y="532" type="line"/>
      <point x="182" y="532" type="line"/>
      <point x="273" y="373" type="line"/>
      <point x="367" y="532" type="line"/>
      <point x="515" y="532" type="line"/>
      <point x="346" y="276" type="line"/>
    </contour>
  </outline>
</glyph>
<glyph name="ordfeminine" format="1">
  <advance width="404"/>
  <unicode hex="00AA"/>
  <outline>
    <contour>
      <point x="369" y="362" type="line"/>
      <point x="292" y="361"/>
      <point x="256" y="379"/>
      <point x="244" y="414" type="curve"/>
      <point x="213" y="378"/>
      <point x="180" y="361"/>
      <point x="139" y="361" type="curve" smooth="yes"/>
      <point x="85" y="361"/>
      <point x="42" y="394"/>
      <point x="42" y="456" type="curve" smooth="yes"/>
      <point x="42" y="528"/>
      <point x="105" y="572"/>
      <point x="240" y="577" type="curve"/>
      <point x="240" y="608" type="line" smooth="yes"/>
      <point x="240" y="638"/>
      <point x="225" y="655"/>
      <point x="195" y="655" type="curve" smooth="yes"/>
      <point x="167" y="655"/>
      <point x="135" y="646"/>
      <point x="90" y="621" type="curve"/>
      <point x="62" y="683" type="line"/>
      <point x="113" y="709"/>
      <point x="157" y="725"/>
      <point x="212" y="725" type="curve" smooth="yes"/>
      <point x="299" y="725"/>
      <point x="336" y="691"/>
      <point x="336" y="610" type="curve" smooth="yes"/>
      <point x="336" y="438" type="line" smooth="yes"/>
      <point x="336" y="413"/>
      <point x="343" y="404"/>
      <point x="369" y="401" type="curve"/>
    </contour>
    <contour>
      <point x="360" y="244" type="line"/>
      <point x="45" y="244" type="line"/>
      <point x="45" y="299" type="line"/>
      <point x="360" y="299" type="line"/>
    </contour>
    <contour>
      <point x="240" y="449" type="curve"/>
      <point x="240" y="538" type="line"/>
      <point x="162" y="532"/>
      <point x="136" y="505"/>
      <point x="136" y="468" type="curve" smooth="yes"/>
      <point x="136" y="439"/>
      <point x="154" y="422"/>
      <point x="182" y="422" type="curve" smooth="yes"/>
      <point x="204" y="422"/>
      <point x="223" y="431"/>
    </contour>
  </outline>
</glyph>
<glyph name="degree" format="1">
  <advance width="400"/>
  <unicode hex="00B0"/>
  <outline>
    <contour>
      <point x="358" y="568" type="curve" smooth="yes"/>
      <point x="358" y="476"/>
      <point x="291" y="411"/>
      <point x="200" y="411" type="curve" smooth="yes"/>
      <point x="109" y="411"/>
      <point x="42" y="476"/>
      <point x="42" y="568" type="curve" smooth="yes"/>
      <point x="42" y="659"/>
      <point x="109" y="724"/>
      <point x="200" y="724" type="curve" smooth="yes"/>
      <point x="291" y="724"/>
      <point x="358" y="659"/>
    </contour>
    <contour>
      <point x="284" y="568" type="curve" smooth="yes"/>
      <point x="284" y="620"/>
      <point x="251" y="659"/>
      <point x="200" y="659" type="curve" smooth="yes"/>
      <point x="149" y="659"/>
      <point x="116" y="620"/>
      <point x="116" y="568" type="curve" smooth="yes"/>
      <point x="116" y="515"/>
      <point x="149" y="476"/>
      <point x="200" y="476" type="curve" smooth="yes"/>
      <point x="251" y="476"/>
      <point x="284" y="515"/>
    </contour>
  </outline>
</glyph>
<glyph name="questiondown" format="1">
  <advance width="497"/>
  <unicode hex="00BF"/>
  <outline>
    <contour>
      <point x="358" y="644" type="curve" smooth="yes"/>
      <point x="358" y="597"/>
      <point x="322" y="561"/>
      <point x="275" y="561" type="curve" smooth="yes"/>
      <point x="228" y="561"/>
      <point x="192" y="597"/>
      <point x="192" y="644" type="curve" smooth="yes"/>
      <point x="192" y="691"/>
      <point x="228" y="727"/>
      <point x="275" y="727" type="curve" smooth="yes"/>
      <point x="322" y="727"/>
      <point x="358" y="691"/>
    </contour>
    <contour>
      <point x="485" y="162" type="line"/>
      <point x="440" y="50"/>
      <point x="375" y="-12"/>
      <point x="246" y="-12" type="curve" smooth="yes"/>
      <point x="108" y="-12"/>
      <point x="30" y="63"/>
      <point x="30" y="172" type="curve" smooth="yes"/>
      <point x="30" y="261"/>
      <point x="65" y="304"/>
      <point x="143" y="359" type="curve" smooth="yes"/>
      <point x="200" y="399"/>
      <point x="222" y="427"/>
      <point x="227" y="485" type="curve"/>
      <point x="321" y="485" type="line"/>
      <point x="331" y="385"/>
      <point x="311" y="347"/>
      <point x="244" y="291" type="curve" smooth="yes"/>
      <point x="200" y="253"/>
      <point x="181" y="221"/>
      <point x="181" y="179" type="curve" smooth="yes"/>
      <point x="181" y="135"/>
      <point x="206" y="104"/>
      <point x="253" y="104" type="curve" smooth="yes"/>
      <point x="301" y="104"/>
      <point x="334" y="131"/>
      <point x="370" y="214" type="curve"/>
    </contour>
  </outline>
</glyph>
<glyph name="ae" format="1">
  <advance width="790"/>
  <unicode hex="00E6"/>
  <outline>
    <contour>
      <point x="761" y="50" type="line"/>
      <point x="691" y="10"/>
      <point x="637" y="-8"/>
      <point x="553" y="-8" type="curve" smooth="yes"/>
      <point x="470" y="-8"/>
      <point x="406" y="25"/>
      <point x="366" y="83" type="curve"/>
      <point x="312" y="29"/>
      <point x="252" y="-6"/>
      <point x="177" y="-6" type="curve" smooth="yes"/>
      <point x="84" y="-6"/>
      <point x="22" y="44"/>
      <point x="22" y="135" type="curve" smooth="yes"/>
      <point x="22" y="243"/>
      <point x="116" y="306"/>
      <point x="318" y="315" type="curve"/>
      <point x="318" y="367" type="line" smooth="yes"/>
      <point x="318" y="411"/>
      <point x="294" y="436"/>
      <point x="248" y="436" type="curve" smooth="yes"/>
      <point x="208" y="436"/>
      <point x="161" y="422"/>
      <point x="93" y="386" type="curve"/>
      <point x="53" y="475" type="line"/>
      <point x="128" y="514"/>
      <point x="188" y="538"/>
      <point x="264" y="538" type="curve" smooth="yes"/>
      <point x="342" y="538"/>
      <point x="381" y="508"/>
      <point x="397" y="458" type="curve"/>
      <point x="404" y="458" type="line"/>
      <point x="430" y="507"/>
      <point x="473" y="542"/>
      <point x="546" y="542" type="curve" smooth="yes"/>
      <point x="680" y="542"/>
      <point x="757" y="442"/>
      <point x="757" y="276" type="curve" smooth="yes"/>
      <point x="757" y="231" type="line"/>
      <point x="459" y="231" type="line"/>
      <point x="464" y="130"/>
      <point x="509" y="94"/>
      <point x="577" y="94" type="curve" smooth="yes"/>
      <point x="623" y="94"/>
      <point x="669" y="109"/>
      <point x="724" y="142" type="curve"/>
    </contour>
    <contour>
      <point x="617" y="292" type="line"/>
      <point x="614" y="411"/>
      <point x="590" y="455"/>
      <point x="539" y="455" type="curve" smooth="yes"/>
      <point x="487" y="455"/>
      <point x="460" y="406"/>
      <point x="458" y="292" type="curve"/>
    </contour>
    <contour>
      <point x="340" y="129" type="curve"/>
      <point x="325" y="164"/>
      <point x="318" y="204"/>
      <point x="318" y="249" type="curve" smooth="yes"/>
      <point x="318" y="259" type="line"/>
      <point x="200" y="251"/>
      <point x="158" y="210"/>
      <point x="158" y="156" type="curve" smooth="yes"/>
      <point x="158" y="107"/>
      <point x="187" y="82"/>
      <point x="236" y="82" type="curve" smooth="yes"/>
      <point x="268" y="82"/>
      <point x="306" y="98"/>
    </contour>
  </outline>
</glyph>
<glyph name="eth" format="1">
  <advance width="531"/>
  <unicode hex="00F0"/>
  <outline>
    <contour>
      <point x="499" y="262" type="line" smooth="yes"/>
      <point x="499" y="92"/>
      <point x="412" y="-10"/>
      <point x="264" y="-10" type="curve" smooth="yes"/>
      <point x="117" y="-10"/>
      <point x="30" y="91"/>
      <point x="30" y="255" type="curve" smooth="yes"/>
      <point x="30" y="277" type="line" smooth="yes"/>
      <point x="30" y="440"/>
      <point x="104" y="535"/>
      <point x="224" y="535" type="curve" smooth="yes"/>
      <point x="290" y="535"/>
      <point x="329" y="501"/>
      <point x="363" y="446" type="curve"/>
      <point x="368" y="446" type="line"/>
      <point x="358" y="512"/>
      <point x="321" y="576"/>
      <point x="271" y="632" type="curve"/>
      <point x="150" y="580" type="line"/>
      <point x="150" y="635" type="line"/>
      <point x="231" y="671" type="line"/>
      <point x="209" y="691"/>
      <point x="186" y="709"/>
      <point x="161" y="725" type="curve"/>
      <point x="282" y="762" type="line"/>
      <point x="300" y="746"/>
      <point x="319" y="729"/>
      <point x="336" y="710" type="curve"/>
      <point x="461" y="762" type="line"/>
      <point x="461" y="707" type="line"/>
      <point x="374" y="670" type="line"/>
      <point x="448" y="580"/>
      <point x="499" y="465"/>
      <point x="499" y="306" type="curve" smooth="yes"/>
    </contour>
    <contour>
      <point x="349" y="254" type="curve" smooth="yes"/>
      <point x="349" y="278" type="line" smooth="yes"/>
      <point x="349" y="398"/>
      <point x="321" y="451"/>
      <point x="264" y="451" type="curve" smooth="yes"/>
      <point x="207" y="451"/>
      <point x="180" y="398"/>
      <point x="180" y="278" type="curve" smooth="yes"/>
      <point x="180" y="255" type="line" smooth="yes"/>
      <point x="180" y="134"/>
      <point x="207" y="81"/>
      <point x="264" y="81" type="curve" smooth="yes"/>
      <point x="321" y="81"/>
      <point x="349" y="134"/>
    </contour>
  </outline>
</glyph>
<glyph name="divide" format="1">
  <advance width="600"/>
  <unicode hex="00F7"/>
  <outline>
    <contour>
      <point x="384" y="584" type="curve" smooth="yes"/>
      <point x="384" y="536"/>
      <point x="348" y="500"/>
      <point x="300" y="500" type="curve" smooth="yes"/>
      <point x="252" y="500"/>
      <point x="216" y="536"/>
      <point x="216" y="584" type="curve" smooth="yes"/>
      <point x="216" y="632"/>
      <point x="252" y="668"/>
      <point x="300" y="668" type="curve" smooth="yes"/>
      <point x="348" y="668"/>
      <point x="384" y="632"/>
    </contour>
    <contour>
      <point x="562" y="294" type="line"/>
      <point x="38" y="294" type="line"/>
      <point x="38" y="416" type="line"/>
      <point x="562" y="416" type="line"/>
    </contour>
    <contour>
      <point x="384" y="126" type="curve" smooth="yes"/>
      <point x="384" y="78"/>
      <point x="348" y="42"/>
      <point x="300" y="42" type="curve" smooth="yes"/>
      <point x="252" y="42"/>
      <point x="216" y="78"/>
      <point x="216" y="126" type="curve" smooth="yes"/>
      <point x="216" y="174"/>
      <point x="252" y="210"/>
      <point x="300" y="210" type="curve" smooth="yes"/>
      <point x="348" y="210"/>
      <point x="384" y="174"/>
    </contour>
  </outline>
</glyph>
<glyph name="Lslash" format="1">
  <advance width="567"/>
  <unicode hex="0141"/>
  <outline>
    <contour>
      <point x="549" y="0" type="line"/>
      <point x="97" y="0" type="line"/>
      <point x="97" y="288" type="line"/>
      <point x="20" y="255" type="line"/>
      <point x="20" y="380" type="line"/>
      <point x="97" y="414" type="line"/>
      <point x="97" y="720" type="line"/>
      <point x="253" y="720" type="line"/>
      <point x="253" y="473" type="line"/>
      <point x="383" y="530" type="line"/>
      <point x="383" y="404" type="line"/>
      <point x="253" y="348" type="line"/>
      <point x="253" y="133" type="line"/>
      <point x="549" y="133" type="line"/>
    </contour>
  </outline>
</glyph>
<glyph name="circumflex" format="1">
  <advance width="500"/>
  <unicode hex="02C6"/>
  <outline>
    <contour>
      <point x="419" y="590" type="line"/>
      <point x="346" y="590" type="line"/>
      <point x="249" y="674" type="line"/>
      <point x="152" y="590" type="line"/>
      <point x="81" y="590" type="line"/>
      <point x="194" y="756" type="line"/>
      <point x="306" y="756" type="line"/>
    </contour>
  </outline>
</glyph>
<glyph name="dotaccent" format="1">
  <advance width="500"/>
  <unicode hex="02D9"/>
  <outline>
    <contour>
      <point x="312" y="592" type="line"/>
      <point x="188" y="592" type="line"/>
      <point x="188" y="718" type="line"/>
      <point x="312" y="718" type="line"/>
    </contour>
  </outline>
</glyph>
<glyph name="ring" format="1">
  <advance width="500"/>
  <unicode hex="02DA"/>
  <outline>
    <contour>
      <point x="375" y="686" type="curve" smooth="yes"/>
      <point x="375" y="625"/>
      <point x="328" y="585"/>
      <point x="250" y="585" type="curve" smooth="yes"/>
      <point x="172" y="585"/>
      <point x="125" y="625"/>
      <point x="125" y="686" type="curve" smooth="yes"/>
      <point x="125" y="745"/>
      <point x="172" y="786"/>
      <point x="250" y="786" type="curve" smooth="yes"/>
      <point x="328" y="786"/>
      <point x="375" y="745"/>
    </contour>
    <contour>
      <point x="301" y="686" type="curve" smooth="yes"/>
      <point x="301" y="717"/>
      <point x="280" y="739"/>
      <point x="250" y="739" type="curve" smooth="yes"/>
      <point x="220" y="739"/>
      <point x="199" y="717"/>
      <point x="199" y="686" type="curve" smooth="yes"/>
      <point x="199" y="655"/>
      <point x="220" y="632"/>
      <point x="250" y="632" type="curve" smooth="yes"/>
      <point x="280" y="632"/>
      <point x="301" y="655"/>
    </contour>
  </outline>
</glyph>
<glyph name="ogonek" format="1">
  <advance width="500"/>
  <unicode hex="02DB"/>
  <outline>
    <contour>
      <point x="391" y="-157" type="line"/>
      <point x="348" y="-179"/>
      <point x="304" y="-190"/>
      <point x="251" y="-190" type="curve" smooth="yes"/>
      <point x="180" y="-190"/>
      <point x="139" y="-162"/>
      <point x="139" y="-114" type="curve" smooth="yes"/>
      <point x="139" y="-71"/>
      <point x="177" y="-32"/>
      <point x="244" y="0" type="curve"/>
      <point x="309" y="0" type="line"/>
      <point x="255" y="-38"/>
      <point x="237" y="-68"/>
      <point x="237" y="-95" type="curve" smooth="yes"/>
      <point x="237" y="-119"/>
      <point x="256" y="-134"/>
      <point x="287" y="-134" type="curve" smooth="yes"/>
      <point x="316" y="-134"/>
      <point x="340" y="-130"/>
      <point x="375" y="-119" type="curve"/>
    </contour>
  </outline>
</glyph>
<glyph name="quoteright" format="1">
  <advance width="236"/>
  <unicode hex="2019"/>
  <unicode hex="02BC"/>
  <outline>
    <contour>
      <point x="219" y="720" type="line"/>
      <point x="113" y="440" type="line"/>
      <point x="30" y="440" type="line"/>
      <point x="58" y="720" type="line"/>
    </contour>
  </outline>
</glyph>
<glyph name="quotedblleft" format="1">
  <advance width="442"/>
  <unicode hex="201C"/>
  <outline>
    <contour>
      <point x="411" y="440" type="line"/>
      <point x="332" y="440" type="line"/>
      <point x="226" y="720" type="line"/>
      <point x="384" y="720" type="line"/>
    </contour>
    <contour>
      <point x="202" y="440" type="line"/>
      <point x="123" y="440" type="line"/>
      <point x="17" y="720" type="line"/>
      <point x="175" y="720" type="line"/>
    </contour>
  </outline>
</glyph>
<glyph name="quotedblright" format="1">
  <advance width="442"/>
  <unicode hex="201D"/>
  <outline>
    <contour>
      <point x="424" y="720" type="line"/>
      <point x="319" y="440" type="line"/>
      <point x="239" y="440" type="line"/>
      <point x="267" y="720" type="line"/>
    </contour>
    <contour>
      <point x="215" y="720" type="line"/>
      <point x="110" y="440" type="line"/>
      <point x="30" y="440" type="line"/>
      <point x="58" y="720" type="line"/>
    </contour>
  </outline>
</glyph>
<glyph name="quotedblbase" format="1">
  <advance width="442"/>
  <unicode hex="201E"/>
  <outline>
    <contour>
      <point x="420" y="165" type="line"/>
      <point x="315" y="-115" type="line"/>
      <point x="235" y="-115" type="line"/>
      <point x="263" y="165" type="line"/>
    </contour>
    <contour>
      <point x="211" y="165" type="line"/>
      <point x="106" y="-115" type="line"/>
      <point x="26" y="-115" type="line"/>
      <point x="54" y="165" type="line"/>
    </contour>
  </outline>
</glyph>
<glyph name="fraction" format="1">
  <advance width="400"/>
  <unicode hex="2044"/>
  <outline>
    <contour>
      <point x="459" y="735" type="line"/>
      <point x="79" y="-15" type="line"/>
      <point x="-59" y="-15" type="line"/>
      <point x="321" y="735" type="line"/>
    </contour>
  </outline>
</glyph>
<glyph name="uni2117" format="1">
  <advance width="828"/>
  <unicode hex="2117"/>
  <outline>
    <contour>
      <point x="786" y="361" type="curve" smooth="yes"/>
      <point x="786" y="148"/>
      <point x="626" y="-12"/>
      <point x="413" y="-12" type="curve" smooth="yes"/>
      <point x="201" y="-12"/>
      <point x="42" y="147"/>
      <point x="42" y="359" type="curve" smooth="yes"/>
      <point x="42" y="572"/>
      <point x="202" y="732"/>
      <point x="415" y="732" type="curve" smooth="yes"/>
      <point x="627" y="732"/>
      <point x="786" y="573"/>
    </contour>
    <contour>
      <point x="742" y="359" type="curve" smooth="yes"/>
      <point x="742" y="552"/>
      <point x="606" y="694"/>
      <point x="413" y="694" type="curve" smooth="yes"/>
      <point x="221" y="694"/>
      <point x="86" y="553"/>
      <point x="86" y="361" type="curve" smooth="yes"/>
      <point x="86" y="168"/>
      <point x="222" y="26"/>
      <point x="415" y="26" type="curve" smooth="yes"/>
      <point x="607" y="26"/>
      <point x="742" y="167"/>
    </contour>
    <contour>
      <point x="592" y="445" type="curve" smooth="yes"/>
      <point x="592" y="356"/>
      <point x="533" y="310"/>
      <point x="431" y="310" type="curve" smooth="yes"/>
      <point x="387" y="310" type="line"/>
      <point x="387" y="152" type="line"/>
      <point x="286" y="152" type="line"/>
      <point x="286" y="573" type="line"/>
      <point x="436" y="573" type="line" smooth="yes"/>
      <point x="531" y="573"/>
      <point x="592" y="531"/>
    </contour>
    <contour>
      <point x="491" y="444" type="curve" smooth="yes"/>
      <point x="491" y="481"/>
      <point x="468" y="501"/>
      <point x="426" y="501" type="curve" smooth="yes"/>
      <point x="384" y="501" type="line"/>
      <point x="384" y="384" type="line"/>
      <point x="426" y="384" type="line" smooth="yes"/>
      <point x="469" y="384"/>
      <point x="491" y="405"/>
    </contour>
  </outline>
</glyph>
<glyph name="apple" format="1">
  <advance width="500"/>
  <unicode hex="F8FF"/>
  <outline>
    <contour>
      <point x="473" y="207" type="line"/>
      <point x="428" y="73" type="line"/>
      <point x="276" y="170" type="line"/>
      <point x="322" y="0" type="line"/>
      <point x="178" y="0" type="line"/>
      <point x="224" y="170" type="line"/>
      <point x="72" y="73" type="line"/>
      <point x="27" y="207" type="line"/>
      <point x="206" y="219" type="line"/>
      <point x="52" y="356" type="line"/>
      <point x="52" y="364" type="line"/>
      <point x="206" y="501" type="line"/>
      <point x="27" y="513" type="line"/>
      <point x="72" y="647" type="line"/>
      <point x="224" y="550" type="line"/>
      <point x="178" y="720" type="line"/>
      <point x="322" y="720" type="line"/>
      <point x="276" y="550" type="line"/>
      <point x="428" y="647" type="line"/>
      <point x="473" y="513" type="line"/>
      <point x="294" y="501" type="line"/>
      <point x="448" y="364" type="line"/>
      <point x="448" y="356" type="line"/>
      <point x="294" y="219" type="line"/>
    </contour>
    <contour>
      <point x="322" y="360" type="line"/>
      <point x="250" y="487" type="line"/>
      <point x="178" y="360" type="line"/>
      <point x="250" y="233" type="line"/>
    </contour>
  </outline>
</glyph>
